<?xml version="1.0" standalone="no"?>
<!DOCTYPE svg PUBLIC "-//W3C//DTD SVG 20010904//EN"
 "http://www.w3.org/TR/2001/REC-SVG-20010904/DTD/svg10.dtd">
<svg version="1.0" xmlns="http://www.w3.org/2000/svg"
 width="256.000000pt" height="256.000000pt" viewBox="0 0 256.000000 256.000000"
 preserveAspectRatio="xMidYMid meet">
<metadata>
Created by potrace 1.14, written by Peter Selinger 2001-2017
</metadata>
<g transform="translate(0.000000,256.000000) scale(0.100000,-0.100000)"
fill="#000000" stroke="none">
<path d="M1009 2136 c-13 -6 -31 -26 -41 -44 -9 -19 -19 -36 -22 -39 -6 -6
-43 -8 -306 -17 -85 -2 -162 -7 -171 -11 -28 -11 -49 -61 -49 -119 l0 -55 -37
-6 c-21 -4 -69 -15 -108 -25 -38 -11 -81 -21 -95 -24 -106 -20 -148 -47 -157
-99 -2 -10 20 -109 48 -220 28 -111 52 -209 54 -217 2 -8 22 -89 45 -180 23
-91 43 -172 45 -180 15 -66 105 -410 113 -430 19 -49 54 -62 127 -48 17 3 210
52 430 107 251 64 404 108 412 117 10 14 22 14 113 -5 56 -11 125 -32 153 -47
29 -14 107 -55 173 -90 177 -93 187 -91 270 70 31 61 60 116 64 121 4 6 42 78
85 160 43 83 92 177 110 210 18 33 57 107 87 165 195 370 190 361 184 395 -8
43 -18 50 -171 130 -71 38 -161 85 -200 105 -38 20 -124 65 -190 100 -66 35
-149 79 -185 98 -85 45 -124 46 -160 5 l-28 -31 -94 19 c-51 11 -133 29 -183
40 -49 10 -101 21 -115 24 -14 3 -50 10 -80 16 -82 18 -95 18 -121 5z"/>
</g>
</svg>
